<mxfile host="Electron" modified="2024-08-08T04:26:33.734Z" agent="Mozilla/5.0 (Windows NT 10.0; Win64; x64) AppleWebKit/537.36 (KHTML, like Gecko) draw.io/24.2.5 Chrome/120.0.6099.109 Electron/28.1.0 Safari/537.36" etag="R2wytwTMoiplN7WddEJO" version="24.2.5" type="device">
  <diagram name="Page-1" id="5VYuht5FFXZqHK38vDDS">
    <mxGraphModel dx="1687" dy="993" grid="1" gridSize="10" guides="1" tooltips="1" connect="1" arrows="1" fold="1" page="1" pageScale="1" pageWidth="1100" pageHeight="850" math="0" shadow="0">
      <root>
        <mxCell id="0" />
        <mxCell id="1" parent="0" />
        <mxCell id="cq3Xcx_9hLqRCdfhavKU-18" style="edgeStyle=orthogonalEdgeStyle;rounded=0;orthogonalLoop=1;jettySize=auto;html=1;entryX=0;entryY=0.5;entryDx=0;entryDy=0;" edge="1" parent="1" source="cq3Xcx_9hLqRCdfhavKU-10" target="cq3Xcx_9hLqRCdfhavKU-17">
          <mxGeometry relative="1" as="geometry" />
        </mxCell>
        <mxCell id="cq3Xcx_9hLqRCdfhavKU-10" value="" style="shape=process;whiteSpace=wrap;html=1;backgroundOutline=1;size=0.01;fillColor=none;" vertex="1" parent="1">
          <mxGeometry x="560" y="80" width="1000" height="410" as="geometry" />
        </mxCell>
        <mxCell id="cq3Xcx_9hLqRCdfhavKU-16" value="" style="shape=process;whiteSpace=wrap;html=1;backgroundOutline=1;size=0.016666666666666666;fillColor=none;" vertex="1" parent="1">
          <mxGeometry x="820" y="130" width="600" height="220" as="geometry" />
        </mxCell>
        <mxCell id="cq3Xcx_9hLqRCdfhavKU-3" style="edgeStyle=orthogonalEdgeStyle;rounded=0;orthogonalLoop=1;jettySize=auto;html=1;entryX=0;entryY=0.5;entryDx=0;entryDy=0;" edge="1" parent="1" source="cq3Xcx_9hLqRCdfhavKU-1" target="cq3Xcx_9hLqRCdfhavKU-4">
          <mxGeometry relative="1" as="geometry">
            <mxPoint x="180" y="90" as="targetPoint" />
          </mxGeometry>
        </mxCell>
        <mxCell id="cq3Xcx_9hLqRCdfhavKU-1" value="S" style="ellipse;whiteSpace=wrap;html=1;aspect=fixed;" vertex="1" parent="1">
          <mxGeometry x="120" y="80" width="20" height="20" as="geometry" />
        </mxCell>
        <mxCell id="cq3Xcx_9hLqRCdfhavKU-6" style="edgeStyle=orthogonalEdgeStyle;rounded=0;orthogonalLoop=1;jettySize=auto;html=1;entryX=0;entryY=0.5;entryDx=0;entryDy=0;" edge="1" parent="1" source="cq3Xcx_9hLqRCdfhavKU-4" target="cq3Xcx_9hLqRCdfhavKU-5">
          <mxGeometry relative="1" as="geometry" />
        </mxCell>
        <mxCell id="cq3Xcx_9hLqRCdfhavKU-4" value="passing&lt;div&gt;&lt;div&gt;name, params&lt;/div&gt;&lt;/div&gt;" style="shape=parallelogram;perimeter=parallelogramPerimeter;whiteSpace=wrap;html=1;fixedSize=1;fillColor=#fff2cc;strokeColor=#d6b656;" vertex="1" parent="1">
          <mxGeometry x="180" y="70" width="120" height="40" as="geometry" />
        </mxCell>
        <mxCell id="cq3Xcx_9hLqRCdfhavKU-9" style="edgeStyle=orthogonalEdgeStyle;rounded=0;orthogonalLoop=1;jettySize=auto;html=1;" edge="1" parent="1" source="cq3Xcx_9hLqRCdfhavKU-5" target="cq3Xcx_9hLqRCdfhavKU-8">
          <mxGeometry relative="1" as="geometry" />
        </mxCell>
        <mxCell id="cq3Xcx_9hLqRCdfhavKU-5" value="Loading config data and validate key" style="rounded=0;whiteSpace=wrap;html=1;" vertex="1" parent="1">
          <mxGeometry x="340" y="70" width="120" height="40" as="geometry" />
        </mxCell>
        <mxCell id="cq3Xcx_9hLqRCdfhavKU-8" value="For job in jobs" style="shape=hexagon;perimeter=hexagonPerimeter2;whiteSpace=wrap;html=1;fixedSize=1;" vertex="1" parent="1">
          <mxGeometry x="520" y="70" width="100" height="40" as="geometry" />
        </mxCell>
        <mxCell id="cq3Xcx_9hLqRCdfhavKU-13" style="edgeStyle=orthogonalEdgeStyle;rounded=0;orthogonalLoop=1;jettySize=auto;html=1;" edge="1" parent="1" source="cq3Xcx_9hLqRCdfhavKU-11" target="cq3Xcx_9hLqRCdfhavKU-12">
          <mxGeometry relative="1" as="geometry" />
        </mxCell>
        <mxCell id="cq3Xcx_9hLqRCdfhavKU-11" value="S" style="ellipse;whiteSpace=wrap;html=1;aspect=fixed;" vertex="1" parent="1">
          <mxGeometry x="600" y="120" width="20" height="20" as="geometry" />
        </mxCell>
        <mxCell id="cq3Xcx_9hLqRCdfhavKU-15" style="edgeStyle=orthogonalEdgeStyle;rounded=0;orthogonalLoop=1;jettySize=auto;html=1;entryX=0;entryY=0.5;entryDx=0;entryDy=0;" edge="1" parent="1" source="cq3Xcx_9hLqRCdfhavKU-12" target="cq3Xcx_9hLqRCdfhavKU-14">
          <mxGeometry relative="1" as="geometry" />
        </mxCell>
        <mxCell id="cq3Xcx_9hLqRCdfhavKU-12" value="passing&lt;div&gt;&lt;div&gt;params&lt;/div&gt;&lt;/div&gt;" style="shape=parallelogram;perimeter=parallelogramPerimeter;whiteSpace=wrap;html=1;fixedSize=1;fillColor=#fff2cc;strokeColor=#d6b656;" vertex="1" parent="1">
          <mxGeometry x="650" y="110" width="90" height="40" as="geometry" />
        </mxCell>
        <mxCell id="cq3Xcx_9hLqRCdfhavKU-14" value="For stage in stages" style="shape=hexagon;perimeter=hexagonPerimeter2;whiteSpace=wrap;html=1;fixedSize=1;" vertex="1" parent="1">
          <mxGeometry x="770" y="105" width="100" height="50" as="geometry" />
        </mxCell>
        <mxCell id="cq3Xcx_9hLqRCdfhavKU-17" value="E" style="ellipse;whiteSpace=wrap;html=1;aspect=fixed;" vertex="1" parent="1">
          <mxGeometry x="1610" y="275" width="20" height="20" as="geometry" />
        </mxCell>
      </root>
    </mxGraphModel>
  </diagram>
</mxfile>
